<?xml version="1.0" standalone="no"?>
<!DOCTYPE svg PUBLIC "-//W3C//DTD SVG 20010904//EN"
 "http://www.w3.org/TR/2001/REC-SVG-20010904/DTD/svg10.dtd">
<svg version="1.0" xmlns="http://www.w3.org/2000/svg"
 width="678.000000pt" height="720.000000pt" viewBox="0 0 678.000000 720.000000"
 preserveAspectRatio="xMidYMid meet">

<g transform="translate(0.000000,720.000000) scale(0.100000,-0.100000)"
fill="#000000" stroke="none">
<path d="M4105 5294 c-49 -13 -166 -45 -260 -70 -93 -26 -224 -61 -290 -79
-473 -128 -775 -211 -855 -234 -36 -11 -92 -27 -125 -36 -33 -9 -68 -21 -77
-26 -10 -5 -28 -9 -40 -9 -21 -1 -22 -2 -6 -14 10 -7 15 -15 13 -18 -3 -3 8
-38 25 -79 17 -41 45 -110 62 -154 17 -44 35 -85 40 -92 5 -7 7 -17 4 -22 -15
-23 0 -21 174 18 19 5 116 30 215 55 99 26 232 61 295 77 63 17 167 44 230 61
150 40 448 119 625 165 98 26 149 34 169 29 35 -9 86 -61 86 -87 0 -35 17 -20
39 34 25 62 51 183 51 236 0 96 -60 187 -158 239 -71 38 -97 39 -217 6z"/>
<path d="M1914 4225 c-79 -45 -153 -120 -190 -193 -26 -51 -29 -67 -29 -152 1
-154 3 -157 328 -467 47 -46 90 -83 94 -83 4 1 64 72 133 159 69 88 128 157
133 154 13 -8 8 6 -10 28 -10 11 -26 30 -36 42 -10 12 -94 99 -186 192 -92 94
-175 181 -184 195 -23 33 -21 86 4 126 11 19 17 34 12 34 -4 0 -36 -16 -69
-35z"/>
<path d="M4277 4230 c-7 -18 -52 -167 -68 -225 -6 -22 -15 -51 -20 -65 -4 -14
-24 -83 -44 -155 -19 -71 -40 -146 -45 -165 -16 -56 -164 -605 -194 -720 -16
-58 -32 -116 -36 -130 -5 -14 -23 -81 -41 -149 -36 -137 -59 -175 -115 -190
-67 -19 -85 -5 -321 235 l-222 226 -48 -6 c-26 -3 -147 -12 -268 -21 -121 -9
-231 -19 -244 -21 -22 -5 15 -45 330 -360 341 -343 421 -414 503 -448 71 -30
74 -28 200 129 64 80 123 145 130 145 7 0 33 -7 57 -16 27 -10 79 -17 134 -17
75 -1 97 2 131 20 98 52 140 108 172 228 11 44 34 132 51 195 17 63 37 140 45
170 31 114 48 178 72 270 14 52 34 127 44 165 38 142 103 394 136 530 39 156
47 191 64 254 8 31 8 47 1 54 -8 8 -11 6 -11 -6 0 -14 -4 -16 -19 -8 -18 10
-78 20 -263 42 -86 11 -97 15 -101 33 -3 16 -5 17 -10 6z"/>
</g>
</svg>
